<svg width="637" height="104" viewBox="0 0 637 104" fill="none" xmlns="http://www.w3.org/2000/svg">
<g clip-path="url(#clip0_5_222)">
<path d="M605.584 2.27469C590.251 2.008 575.851 11.208 571.851 26.5414C565.184 51.7414 586.384 57.8747 603.184 66.5414C609.184 69.6081 607.851 74.2747 603.585 75.0747C596.918 75.2081 585.984 69.2081 575.851 63.2081C573.851 62.0081 572.384 62.8081 572.384 64.6747L572.251 91.6081C572.251 94.5414 572.118 96.1414 573.984 96.9414C580.918 100.008 592.651 102.541 600.384 102.941C617.851 103.741 634.651 91.3414 636.518 75.0747C639.318 52.1414 620.118 47.0747 604.118 38.8081C598.251 35.7414 599.451 31.0747 603.851 30.2747C610.384 30.1414 618.784 35.4747 628.918 41.4747C630.918 42.6747 632.384 41.8747 632.384 40.008L632.518 13.0747C632.518 10.2747 632.518 9.07469 630.651 8.40802C623.584 5.34136 613.318 2.54136 605.584 2.27469Z" fill="black"/>
<path d="M489.85 3.74205C486.917 3.74205 486.251 3.87461 486.251 6.94127V100.275C486.251 101.209 486.385 102.408 487.985 102.408H513.85C515.45 102.408 515.585 101.209 515.585 99.742L515.45 79.6073C515.45 77.474 517.185 77.4741 517.985 79.0741C520.252 84.1407 523.583 91.3415 527.45 99.8749C528.117 101.342 529.452 102.408 531.985 102.408H558.518C559.985 102.275 559.717 100.942 559.317 100.142C557.317 96.0091 551.983 86.0081 544.917 70.4081C542.65 64.4081 542.117 65.0741 546.784 61.0741C554.517 54.6741 557.185 44.141 556.118 34.0077C553.851 10.8077 538.252 3.60871 516.518 3.74205H513.052H489.85ZM517.052 27.742C518.518 27.742 520.385 27.7415 521.985 27.8749C533.985 28.4082 533.317 43.3424 522.251 44.1424C520.517 44.2758 518.65 44.2753 516.917 44.2753C514.917 44.1419 514.518 43.4743 514.518 42.0077V30.0077C514.518 27.741 515.985 27.8754 517.052 27.742Z" fill="black"/>
<path d="M413.184 3.74219C412.651 3.74219 411.451 4.009 411.051 5.20898L383.985 98.0078C383.318 100.408 383.317 102.408 387.317 102.408H409.717C412.384 102.275 413.318 102.141 413.985 99.0742L415.317 94.4082C416.25 90.6749 417.85 90.541 419.85 90.541H435.718C438.518 90.541 440.117 91.0754 440.917 94.2754C441.317 95.8754 441.718 97.3414 442.118 98.9414C442.651 101.208 443.851 102.408 447.051 102.408H467.85C473.717 102.275 472.384 99.7407 471.317 95.6074L441.717 5.07422C441.451 4.27422 440.518 3.74219 439.585 3.74219H413.184ZM428.167 46.7754C428.417 46.8087 428.651 47.2083 428.784 47.875C429.984 52.5417 431.318 57.3412 432.518 62.0078C432.785 63.4745 433.185 64.4082 431.051 64.4082H424.917C423.85 64.4082 423.185 64.2743 423.585 62.541C424.918 57.6077 426.119 52.8083 427.452 47.875C427.652 47.075 427.917 46.7421 428.167 46.7754Z" fill="black"/>
<path d="M371.184 89.2086L371.051 66.5419C370.917 63.8752 369.184 64.2752 367.451 65.3419C337.451 83.4752 322.651 67.0752 323.184 51.6085C323.718 36.9418 338.384 22.9418 367.584 40.2752C369.451 41.3418 371.051 40.5419 371.051 38.6752V14.8085C371.051 12.0085 371.051 10.9418 369.184 10.1418C363.318 7.60849 358.251 6.14182 352.251 5.07515C314.117 -2.52485 292.784 24.4085 291.451 52.0085C290.117 77.2085 305.584 102.809 339.984 102.542C349.984 102.409 359.718 99.7419 369.051 95.6086C371.318 94.9419 371.318 91.0752 371.184 89.2086Z" fill="black"/>
<path d="M217.317 99.7418C217.317 101.208 217.851 102.408 220.384 102.408C237.851 102.408 255.317 102.408 272.784 102.408C276.251 102.408 276.517 101.342 276.517 98.6751C276.517 91.2084 276.517 84.5418 276.517 77.0751C276.517 73.4751 275.984 72.5417 272.784 72.6751C264.251 72.6751 255.584 72.6751 246.917 72.6751C246.251 72.6751 244.917 71.8751 244.917 70.0084C244.917 67.8751 246.117 67.3417 246.917 67.3417C255.451 67.3417 264.117 67.3417 272.651 67.3417C276.251 67.3417 276.517 66.4084 276.517 63.4751C276.517 57.0751 276.517 51.4751 276.517 45.0751C276.651 40.8084 275.184 40.5417 272.517 40.5417C264.117 40.5417 255.717 40.5417 247.184 40.5417C245.984 40.5417 245.184 40.0084 245.184 38.1417C245.051 36.1417 245.851 35.2084 247.051 35.2084C255.451 35.2084 263.984 35.2084 272.384 35.2084C276.251 35.3417 276.517 33.6084 276.517 31.3417V7.47503C276.517 3.60836 274.784 3.87503 272.384 3.7417C255.184 3.7417 237.851 3.7417 220.651 3.7417C218.651 3.7417 217.317 4.67503 217.317 7.87503C217.317 38.5417 217.317 69.0751 217.317 99.7418Z" fill="black"/>
<path d="M130.382 3.73634C127.804 3.73816 126.784 4.05757 126.784 9.07423V99.7422C126.784 100.809 127.051 102.408 129.585 102.408C140.651 102.408 151.85 102.275 162.917 102.408C188.517 102.675 203.984 75.0753 204.384 52.8086C204.65 30.2753 190.651 6.14219 162.784 3.7422H131.585C131.151 3.7422 130.75 3.73608 130.382 3.73634ZM159.05 34.0078H162.516C171.45 34.6745 175.318 43.0746 175.184 51.4746C175.051 60.0079 171.316 68.4091 161.983 68.6758C160.783 68.6758 159.851 68.541 158.651 68.541C156.784 68.541 156.251 67.7415 156.251 66.4082C156.251 63.6082 156.516 39.0754 156.516 36.2754C156.516 34.0087 157.983 34.1412 159.05 34.0078Z" fill="black"/>
<path d="M86.3839 3.7417C83.4506 3.7417 82.9173 4.00838 82.7839 7.07503C82.7839 38.2751 82.7839 69.0751 82.7839 100.408C82.7839 101.342 83.0506 102.408 84.6506 102.408C93.1839 102.408 101.717 102.408 110.384 102.408C111.984 102.408 112.117 101.342 112.117 99.7418L111.984 6.5417C111.984 4.40836 111.584 3.87503 109.717 3.7417H86.3839Z" fill="black"/>
<path d="M57.584 33.4751C60.6506 26.9418 63.3173 21.4751 64.784 18.2751C67.0506 13.7418 66.784 13.3418 63.0506 9.74175C56.384 3.34175 47.584 0.27508 38.9173 0.0084133C12.9173 -0.52492 -2.41607 24.4084 6.2506 43.4751C14.3839 61.7418 37.8506 59.7418 36.5173 68.9418C35.184 75.6085 21.9839 70.2751 15.4506 64.8085C13.3173 63.2085 11.9839 61.3418 10.1173 65.2085C5.98394 73.2085 2.38393 81.8751 0.783932 84.8085C-0.149403 86.8085 -0.549401 88.0085 1.31727 90.6751C16.5173 111.208 57.3173 107.742 66.9173 78.8085C75.3173 47.8751 48.384 42.5418 37.584 37.0751C30.5173 33.3418 33.4506 27.4751 39.7173 28.2751C43.7173 28.8084 48.9173 31.3418 52.6506 34.2751C55.0506 36.2751 56.5173 36.0084 57.584 33.4751Z" fill="black"/>
</g>
<defs>
<clipPath id="clip0_5_222">
<rect width="637" height="104" fill="white"/>
</clipPath>
</defs>
</svg>
